<svg version="1.1" id="Layer_1" xmlns="http://www.w3.org/2000/svg" xmlns:xlink="http://www.w3.org/1999/xlink" x="0px" y="0px"
	 width="100%" viewBox="0 0 496 496" enable-background="new 0 0 496 496" xml:space="preserve">
<path fill="#000000" opacity="1.000000" stroke="none" 
	d="
M1.000000,344.468658 
	C2.078420,345.615784 2.868577,346.800385 5.257613,345.145508 
	C7.500949,343.591492 10.377341,342.736908 13.098968,342.126099 
	C23.306656,339.835175 24.846426,338.248108 25.867983,327.981842 
	C25.999641,326.658752 26.076670,325.330200 26.180992,323.978424 
	C27.333025,322.684357 28.573227,324.267090 29.793232,323.691284 
	C32.120728,334.756073 31.207499,345.950012 32.301533,356.990234 
	C34.211597,376.265289 33.059734,395.805084 37.315605,414.880798 
	C40.122967,427.464050 46.591480,438.084442 54.353722,448.204468 
	C67.839729,465.786896 85.996819,475.850464 106.995178,480.864136 
	C120.309052,484.043030 134.040100,483.194763 147.639374,481.879517 
	C154.410095,481.224701 161.217575,481.596649 168.027557,480.869141 
	C172.933487,480.345001 177.908829,479.618622 182.890884,479.666565 
	C199.016907,479.821747 214.948410,477.797424 230.901779,475.757538 
	C237.124908,474.961823 243.511459,475.055542 249.770157,474.922333 
	C260.737762,474.688873 271.682434,473.940216 282.625214,473.491089 
	C303.841522,472.620178 325.009125,470.830048 346.268066,470.426270 
	C356.512817,470.231689 366.794159,469.268707 377.037933,468.502747 
	C389.577728,467.565063 402.244995,467.838623 414.641205,465.218933 
	C428.905243,462.204590 441.410400,455.581635 452.595367,446.411011 
	C473.387482,429.363403 484.464325,407.513153 484.635559,380.443634 
	C484.718536,367.322479 482.644196,354.325012 482.001129,341.276398 
	C481.461517,330.326874 480.244202,319.454193 479.561401,308.531586 
	C478.632690,293.675690 477.067719,278.860107 475.826813,264.022980 
	C475.053711,254.778687 474.199341,245.536148 473.690125,236.275833 
	C472.560638,215.737000 471.966614,195.162918 470.489227,174.651108 
	C469.534698,161.398987 469.085724,148.152054 468.495697,134.893021 
	C467.671722,116.376732 468.193176,97.550751 463.449554,79.532326 
	C458.100342,59.213783 446.757538,42.588268 428.559662,31.064537 
	C418.815582,24.894138 409.034912,18.854500 397.503143,16.962616 
	C386.352051,15.133198 375.078461,14.395050 363.781189,16.082716 
	C361.983154,16.351324 360.131378,16.358171 358.306458,16.333921 
	C342.010620,16.117371 325.861969,18.364441 309.632477,19.140316 
	C302.997467,19.457512 296.400024,20.285788 289.754791,20.348516 
	C267.678162,20.556919 245.748032,23.707336 223.725800,24.075214 
	C212.413559,24.264183 201.380630,26.304106 190.110855,26.727892 
	C167.950851,27.561195 145.751160,27.997398 123.618210,29.496490 
	C110.749352,30.368114 97.714630,30.987812 85.143669,33.596226 
	C60.174667,38.777180 41.349297,52.937977 28.217951,75.116287 
	C17.659517,92.949051 15.858707,111.847549 18.191856,131.799545 
	C18.940235,138.199341 18.956762,144.735992 19.129442,151.171265 
	C19.526049,165.951797 21.050575,180.651855 21.589758,195.422928 
	C22.157578,210.978516 22.975290,226.618164 24.754065,242.048889 
	C25.778803,250.938416 25.392263,259.930389 27.105085,268.751160 
	C27.663601,271.627441 27.343887,274.756470 26.976213,277.714020 
	C26.087898,284.859619 24.517143,286.017731 17.480556,284.545471 
	C13.621911,283.738159 10.156154,283.680267 7.495219,287.027344 
	C6.208612,288.645721 4.377976,287.683502 2.698668,288.285461 
	C2.273793,289.635773 1.830467,291.044708 1.193570,292.726807 
	C1.000000,195.712753 1.000000,98.425507 1.000000,1.069131 
	C166.333328,1.069131 331.666656,1.069131 497.000000,1.069131 
	C497.000000,46.105324 497.000000,91.084007 496.817505,136.242188 
	C496.288391,134.952850 495.941711,133.483994 495.355469,131.000015 
	C492.348602,142.190414 493.522644,152.152542 495.321686,162.819443 
	C496.334412,161.721573 496.667206,161.360779 497.000000,161.000000 
	C497.000000,169.020905 497.000000,177.041809 496.788940,185.424072 
	C494.982452,184.916382 494.883820,186.284607 494.773132,187.152252 
	C493.088013,200.360107 494.228149,213.602921 494.397552,226.832047 
	C494.417847,228.416931 495.335022,229.385437 497.000000,228.000000 
	C497.000000,291.354218 497.000000,354.708466 496.820404,418.358154 
	C496.062622,417.906769 495.246338,416.534973 494.589661,418.234131 
	C492.037994,424.836304 488.094879,430.951813 487.139465,438.115356 
	C485.795776,448.189880 487.600372,451.136871 497.000000,455.000000 
	C497.000000,468.991119 497.000000,482.982269 497.000000,496.980042 
	C331.780304,496.986694 166.560577,496.986694 1.000000,496.986694 
	C1.000000,446.312958 1.000000,395.625122 1.000000,344.468658 
z"/>
<path fill="#000000" opacity="1.000000" stroke="none" 
	d="
M413.785156,359.660156 
	C406.399689,378.809601 399.082703,397.573486 391.989136,416.421509 
	C388.954529,424.484619 381.148743,431.727325 368.300812,427.670502 
	C342.769531,419.608887 317.169922,411.763641 291.590393,403.855286 
	C289.692627,403.268585 287.745667,402.572662 285.794342,402.475708 
	C278.692657,402.122742 276.234100,404.112152 273.999084,411.076324 
	C273.310699,413.221436 273.869354,414.620941 275.511993,415.826355 
	C276.450745,416.515259 277.473938,417.090454 278.401550,417.792877 
	C282.840271,421.153992 284.889008,427.072540 283.580994,431.922150 
	C281.998230,437.790497 277.259796,438.709900 272.352509,439.258087 
	C262.904327,440.313629 253.413071,440.596313 243.919571,440.143097 
	C240.454041,439.977631 238.195328,440.822845 237.368805,444.585419 
	C236.603989,448.067169 233.848831,449.565735 230.540466,450.351990 
	C224.125153,451.876770 217.616592,451.329315 211.140717,451.358276 
	C195.490692,451.428345 179.909149,450.248383 164.358276,448.581055 
	C149.559387,446.994385 137.521545,440.270233 127.859375,429.076233 
	C127.439774,428.590057 126.869469,428.234009 125.909546,427.434235 
	C120.412155,434.304657 113.263748,430.408081 107.643547,428.677795 
	C103.407104,427.373535 100.342842,421.654785 96.533699,418.089905 
	C94.709045,416.382233 98.345802,414.657196 98.904236,412.616760 
	C95.863831,409.313232 90.717857,407.344055 91.818420,401.491577 
	C92.408318,398.354706 95.317520,398.977081 97.835518,398.072083 
	C97.449989,394.321777 99.132988,391.854401 103.263824,391.704163 
	C105.051376,391.639160 105.268776,390.485138 105.630753,389.095856 
	C106.919540,384.149353 109.105400,383.455719 113.414948,386.498657 
	C114.873512,387.528503 116.044754,389.038300 117.644814,389.331146 
	C118.912498,388.920715 119.280258,388.156830 119.459091,387.345093 
	C124.492363,364.497406 136.914764,345.409973 150.252670,326.787964 
	C150.736908,326.111847 151.231949,325.437347 151.783005,324.816315 
	C154.835373,321.376221 154.298981,319.138458 150.088531,316.842133 
	C127.931168,304.757904 120.377655,280.738159 122.181778,258.129120 
	C123.558945,240.870789 128.669083,224.900299 138.661285,210.622498 
	C141.202072,206.991989 138.784103,205.264679 135.971909,203.591446 
	C120.408531,194.331314 106.158157,183.427795 94.492905,169.464066 
	C75.344299,146.542480 63.406128,120.391060 60.083687,90.575821 
	C59.437111,84.773514 60.145996,78.925781 62.587002,73.470345 
	C65.696449,66.521011 71.951042,63.536087 79.330429,65.466774 
	C96.309349,69.909004 109.729454,80.253044 122.436790,91.690033 
	C146.259399,113.131119 163.596115,139.101624 176.056305,168.514557 
	C177.313049,171.481171 177.112381,177.333038 183.155701,175.096771 
	C189.525116,172.739853 191.788315,167.742279 189.271759,162.034393 
	C182.136581,145.850815 176.401596,129.251923 173.239944,111.795563 
	C169.638260,91.909584 169.640854,72.149002 174.837585,52.525871 
	C175.993881,48.159698 177.899475,44.067146 180.199905,40.185707 
	C186.557266,29.459091 196.024124,27.862730 205.541260,36.037731 
	C211.905121,41.504143 217.024597,48.077396 221.564026,55.106289 
	C233.181381,73.094666 238.956085,93.012100 241.437317,114.116150 
	C243.261230,129.629471 242.449203,144.954788 239.509888,160.235016 
	C238.854370,163.642761 239.231552,166.533173 243.391418,167.541870 
	C275.262909,175.270065 294.839417,196.550583 307.362854,225.619690 
	C308.291718,227.775818 308.292053,231.382050 311.455841,231.135437 
	C314.520813,230.896545 317.195282,229.099167 318.863251,225.921463 
	C323.537476,217.016479 332.141357,213.631104 342.109650,216.405396 
	C344.594574,217.096954 346.921600,218.416794 349.408142,215.777237 
	C351.168854,213.908234 352.520172,215.291885 353.300140,217.455231 
	C354.937683,221.997040 362.422882,224.886856 366.729126,222.655228 
	C368.682037,221.643188 370.247681,220.630707 371.291351,223.724579 
	C372.481964,227.254166 381.754395,231.006607 385.021454,229.004898 
	C387.955566,227.207214 389.184082,227.244751 390.345917,230.755463 
	C391.695557,234.833786 401.187744,236.859436 404.491119,234.023453 
	C406.422455,232.365417 407.550171,232.416229 408.292969,235.124573 
	C409.635162,240.018509 418.758148,243.407776 423.354492,240.705292 
	C425.262787,239.583282 426.765594,239.747269 427.149689,241.864059 
	C427.713013,244.968658 430.007812,245.644394 432.359680,246.541656 
	C446.929718,252.100174 451.661682,262.549408 446.057190,276.964386 
	C435.381195,304.423523 424.651489,331.861755 413.785156,359.660156 
M338.602722,409.716827 
	C347.490448,412.493042 356.367310,415.304749 365.268677,418.036530 
	C376.470215,421.474091 383.318970,418.063904 387.585480,406.997437 
	C390.697876,398.924561 393.756226,390.830627 396.910919,382.774353 
	C412.079803,344.036713 427.282166,305.312195 442.448761,266.573669 
	C444.874847,260.377014 443.191711,255.486938 437.349213,252.237122 
	C434.748016,250.790253 431.927643,249.660797 429.094086,248.730255 
	C426.371094,247.836014 424.356384,248.266968 425.264313,252.013336 
	C425.959045,254.879822 425.541107,257.385773 422.235168,258.402161 
	C419.750183,259.166199 417.409454,258.718414 416.079956,256.444305 
	C414.441895,253.642365 415.533752,251.535858 418.255951,249.797012 
	C420.978943,248.057678 420.909698,246.040878 417.716003,244.794205 
	C415.244781,243.829559 412.705444,242.984131 410.130829,242.353622 
	C406.935394,241.571091 404.377075,241.827866 406.330353,246.203156 
	C407.535126,248.901855 406.535614,250.846939 404.226501,252.031479 
	C401.764618,253.294373 399.222504,252.977905 397.554626,250.565552 
	C395.970062,248.273636 395.949554,245.826782 398.259766,243.874603 
	C399.500641,242.826004 401.244873,242.222794 400.869293,240.020782 
	C399.033051,238.144012 396.454865,237.864227 394.135834,237.079956 
	C387.861298,234.957916 387.871490,235.002045 388.091522,241.493240 
	C388.175446,243.969284 386.864288,245.582352 384.571686,246.350159 
	C382.014221,247.206635 379.964905,246.379868 378.565460,244.132065 
	C377.361816,242.198837 377.620758,240.447540 379.251923,238.725082 
	C383.666565,234.063324 383.533325,233.590851 377.591248,231.520691 
	C376.181244,231.029480 374.744293,230.543488 373.279022,230.297516 
	C369.856415,229.723007 367.480194,230.162476 369.000580,234.680511 
	C369.948547,237.497467 368.603882,239.523621 365.926422,240.653214 
	C363.747284,241.572601 361.883331,240.830811 360.651306,239.066071 
	C359.052185,236.775574 359.015778,234.204163 361.231506,232.303711 
	C365.083679,228.999710 363.825409,227.188034 359.723633,225.871109 
	C357.983215,225.312347 356.282776,224.629578 354.544128,224.064880 
	C350.937378,222.893478 349.798218,224.426483 350.708527,227.800873 
	C351.204285,229.638611 351.639771,231.396393 350.311432,233.006409 
	C349.083984,234.494156 347.515381,235.447311 345.503143,235.004730 
	C343.386536,234.539169 342.027924,233.156937 341.325928,231.105637 
	C340.558289,228.862488 341.386505,227.139328 343.217407,225.941803 
	C345.791260,224.258316 347.906494,222.453491 343.936432,220.247589 
	C334.999908,215.282135 324.162842,219.329453 320.406250,228.840820 
	C319.382629,231.432602 318.694824,234.038956 315.071686,234.605545 
	C312.730103,234.971725 311.706238,237.125214 312.766907,239.638535 
	C316.267731,240.349136 319.691986,239.568405 323.122742,239.244003 
	C323.248169,241.990265 321.290558,242.116653 319.866394,242.794662 
	C317.161652,244.082321 312.679901,244.443130 313.976746,248.664398 
	C315.088135,252.281982 318.792419,250.038269 321.452057,249.950455 
	C324.838501,249.838684 328.420776,248.603851 332.170105,251.173798 
	C329.831940,253.061829 327.782471,252.182205 325.939606,252.352264 
	C324.294006,252.504105 322.365112,252.149307 321.512756,253.950485 
	C320.632599,255.810425 319.202972,256.061646 317.461609,256.175598 
	C314.402008,256.375763 312.861755,258.035309 312.124573,261.101776 
	C309.127258,273.570221 302.485382,284.011993 293.685425,293.180389 
	C287.989136,299.115204 281.442078,303.944916 274.336548,308.043762 
	C271.121826,309.898224 268.749969,312.195526 271.397858,316.029755 
	C280.677765,329.467316 286.716827,344.468262 291.726990,359.806732 
	C294.739441,369.029266 297.207703,378.821442 294.859741,388.628723 
	C293.534027,394.166168 295.542480,396.094269 300.297333,397.545105 
	C312.857147,401.377502 325.325409,405.509949 338.602722,409.716827 
M301.139557,272.612610 
	C305.705505,265.910156 306.555725,258.555023 304.746033,250.550934 
	C303.790039,249.537766 301.538971,251.164352 300.466492,248.888794 
	C302.443237,246.238419 303.712158,243.335281 300.055542,240.860107 
	C301.709229,238.450119 304.091309,236.963654 302.976868,233.608917 
	C298.823090,221.104935 292.857300,209.665268 283.641571,200.165421 
	C278.267273,194.625397 270.344696,194.934296 265.000824,200.537201 
	C262.189240,203.485031 260.306335,207.035294 259.357361,210.972885 
	C257.158051,220.098602 258.040405,229.106979 260.623383,238.042007 
	C261.626007,241.510269 263.349365,244.810547 263.410980,249.342896 
	C254.204910,250.767838 245.873047,254.769882 237.579056,259.412567 
	C235.580063,256.493195 234.775620,253.620483 233.752991,250.841705 
	C231.383682,244.403732 228.424316,238.273087 224.122955,232.868668 
	C211.872208,217.476273 192.078629,216.232117 178.502975,230.474365 
	C167.036362,242.504028 164.092499,256.911621 167.874710,273.049225 
	C168.877716,277.328766 170.495895,279.116821 174.840775,278.714966 
	C178.908875,278.338715 182.602539,280.362396 186.258392,281.605530 
	C189.073624,282.562775 186.478790,286.613281 188.010513,288.906799 
	C188.101532,289.043121 188.155197,289.207123 188.211258,289.363647 
	C189.121536,291.904633 188.383606,293.340271 185.656342,294.182281 
	C174.401535,297.656891 174.759781,300.795746 182.600113,309.011353 
	C183.730499,310.195862 185.157471,311.171082 186.596985,311.974884 
	C196.036819,317.246277 206.472122,319.200256 216.936890,318.368042 
	C232.585785,317.123535 247.687378,312.707031 262.107513,306.505127 
	C278.391449,299.501648 292.046844,289.172424 301.139557,272.612610 
M263.957550,414.448273 
	C270.088043,404.899567 273.347504,394.440582 274.819763,383.189484 
	C276.555634,369.923676 274.424316,357.005859 272.222717,344.099091 
	C270.856750,336.091034 268.872406,328.152161 265.662506,320.611237 
	C263.856720,316.369019 261.266968,314.427399 256.265564,316.157776 
	C246.679886,319.474213 236.842499,321.974396 226.921173,324.153717 
	C221.698853,325.300842 221.011978,327.339966 223.830643,331.938995 
	C227.049393,337.190826 230.434021,342.342285 233.595184,347.627869 
	C241.045486,360.085175 247.874146,372.873627 251.731201,386.957153 
	C255.259720,399.841187 246.919373,408.148895 234.046844,404.774628 
	C231.334595,404.063660 228.640045,403.024628 226.167694,401.705139 
	C216.632507,396.616150 208.706955,389.576141 201.940033,381.181091 
	C200.754227,379.709961 200.048370,377.518768 196.877075,377.739105 
	C195.553680,384.147064 191.892593,390.140167 196.756165,397.221100 
	C201.592453,404.262268 204.110428,412.453705 204.334061,421.161530 
	C204.479584,426.828308 205.372955,427.573639 210.981491,425.879150 
	C219.780182,423.220764 227.458008,424.740387 233.683762,431.703217 
	C235.472351,433.703644 237.203598,433.668762 239.454651,432.803741 
	C249.127289,429.086731 257.719147,423.946045 263.957550,414.448273 
M135.776947,181.719376 
	C142.535736,187.157303 149.764359,191.896072 157.361526,196.065063 
	C159.046692,196.989807 160.998108,198.528122 162.850327,196.832230 
	C164.613770,195.217636 163.606689,193.117966 162.830246,191.273041 
	C161.153275,187.288162 159.479736,183.300568 157.716736,179.353409 
	C146.538925,154.327530 131.775711,131.756546 111.521599,113.099388 
	C106.335220,108.321922 101.303246,103.138878 93.796051,101.547852 
	C87.995087,100.318428 85.892212,101.819504 87.012039,107.664200 
	C88.330612,114.546173 90.792458,121.084198 93.357498,127.585114 
	C102.042381,149.596390 117.191406,166.558151 135.776947,181.719376 
M200.774536,135.838547 
	C204.922943,146.400238 205.640976,159.305023 220.006546,162.998047 
	C221.221832,162.359314 221.463593,160.738831 221.640137,159.042175 
	C223.298401,143.103790 223.643570,127.195244 220.543152,111.369865 
	C217.611191,96.404358 212.692215,82.161453 204.933578,68.974281 
	C203.513458,66.560570 202.243423,63.557816 198.688751,64.241249 
	C195.602066,64.834717 195.520660,67.815750 195.128220,70.204887 
	C194.403427,74.617126 193.619247,79.053566 193.389786,83.507217 
	C192.481613,101.133217 195.508698,118.251747 200.774536,135.838547 
M98.121696,402.361420 
	C96.231857,402.432861 94.911537,403.137909 96.484802,405.016907 
	C97.732605,406.507172 99.483490,407.592743 101.070984,408.777649 
	C102.882111,410.129486 106.363274,409.346008 106.860313,411.972443 
	C107.480301,415.248566 103.152252,414.646393 101.960129,416.757263 
	C101.814064,417.015900 101.841408,417.372467 101.745979,417.932739 
	C104.651649,419.725922 108.409454,418.962585 111.136108,420.345337 
	C112.247597,422.853394 108.772278,423.348602 109.630470,425.534271 
	C113.447250,426.538208 117.084702,424.539856 120.930618,424.842987 
	C123.008553,425.006775 124.049782,422.769196 123.054085,420.345856 
	C120.632095,414.451263 119.690125,408.261475 119.237267,401.924011 
	C118.784889,395.593231 116.552444,392.958771 110.272316,390.258301 
	C111.049080,392.640289 113.636467,394.460876 112.601372,397.651123 
	C109.170235,398.623291 106.223122,394.830017 102.871658,396.479309 
	C102.759117,398.680481 105.977432,399.503815 104.691208,401.972382 
	C102.803619,402.960205 100.784004,402.123962 98.121696,402.361420 
M223.114990,432.074524 
	C213.338364,429.722748 202.296707,435.185455 200.810379,443.111938 
	C201.055588,443.328217 201.271683,443.681793 201.550232,443.740875 
	C210.415894,445.620422 219.376160,444.694489 228.280746,444.329041 
	C231.104858,444.213135 231.053116,441.408234 230.156784,439.208984 
	C228.918625,436.170990 226.587875,434.061951 223.114990,432.074524 
M260.966766,428.440521 
	C259.935638,429.783295 257.583466,430.191345 258.029449,432.861633 
	C262.705750,434.648102 267.402557,433.201965 272.102264,432.727356 
	C274.291595,432.506226 276.698944,432.522827 277.393188,429.935028 
	C278.131439,427.183289 276.610077,425.050385 274.474304,423.546356 
	C271.379425,421.366943 268.245758,420.305939 265.346497,424.071259 
	C264.240082,425.508270 262.785767,426.677460 260.966766,428.440521 
M177.575867,285.483612 
	C178.868164,284.944458 179.892120,283.989899 177.977509,283.302917 
	C176.062851,282.615875 173.813843,282.505249 172.242111,284.620270 
	C173.648026,286.547577 175.396133,285.397675 177.575867,285.483612 
z"/>
<path fill="#000000" opacity="1.000000" stroke="none" 
	d="
M382.274353,327.873749 
	C382.720734,323.597137 386.381958,321.653137 389.102570,318.976715 
	C390.761963,317.344269 392.580139,315.870087 394.199310,314.200928 
	C395.408417,312.954498 396.304535,311.500610 394.656250,309.868500 
	C393.089630,308.317291 391.732819,308.946655 390.301727,310.161285 
	C388.715240,311.507812 387.712372,313.594604 384.161530,314.524536 
	C386.260864,312.307434 387.590576,310.962067 388.849640,309.553589 
	C389.754822,308.541046 390.706085,307.410156 389.298584,306.123260 
	C387.939331,304.880463 386.897705,305.884521 385.837494,306.749298 
	C382.541351,309.437805 380.166626,313.169586 375.172485,316.204865 
	C379.588806,308.215576 385.289368,303.263062 390.860138,298.267395 
	C392.484741,296.810425 394.679413,297.756104 396.451508,298.855286 
	C400.446228,301.333221 403.828430,304.515686 406.953278,307.999390 
	C409.391876,310.718079 408.017853,312.854767 405.957428,314.892365 
	C400.881439,319.912140 395.843079,324.971313 390.702545,329.924286 
	C379.559540,340.660675 369.895569,352.911041 357.979279,362.806366 
	C351.308014,368.346222 343.443817,372.296387 335.225403,375.714996 
	C337.471680,360.254852 338.593292,345.037659 354.758240,337.020599 
	C351.648499,342.688049 345.987793,345.854950 343.721985,351.650665 
	C351.162689,349.743805 354.091339,342.107208 360.627533,338.639282 
	C360.033295,344.160309 352.573669,345.906799 353.506042,352.104675 
	C355.755280,346.412689 361.744659,346.651245 365.556091,343.537689 
	C366.350861,345.024902 365.273438,345.691864 364.933411,346.536285 
	C364.482544,347.655914 363.915771,348.762878 364.974731,349.748047 
	C366.345856,351.023682 367.503510,349.920654 368.464600,349.091156 
	C379.574432,339.502625 389.453796,328.707825 399.113098,317.699768 
	C400.118469,316.554016 400.512238,315.350037 399.193634,314.234375 
	C397.781891,313.039886 396.641998,314.140961 395.716949,315.017731 
	C391.262512,319.239532 387.730469,324.407867 382.274353,327.873749 
M350.723022,359.435608 
	C348.674072,359.429291 347.603027,358.283630 346.479584,356.610168 
	C345.250671,354.779572 342.659515,353.496399 341.192505,355.741760 
	C339.633911,358.127380 339.399567,361.495880 339.984192,364.304443 
	C340.461212,366.596008 343.380646,366.846436 345.400177,367.149078 
	C348.466675,367.608673 350.657593,365.351837 352.575500,363.423279 
	C353.820557,362.171326 352.583313,360.686249 350.723022,359.435608 
M397.970825,309.486938 
	C398.849091,310.247131 399.715759,311.021271 400.608398,311.764160 
	C401.864380,312.809509 403.130524,314.358337 404.824615,312.568085 
	C406.426300,310.875519 405.031250,309.538422 404.003632,308.244202 
	C401.478790,305.064301 398.038696,303.005829 394.789734,300.703369 
	C393.185455,299.566467 391.961761,300.095154 390.917114,301.389618 
	C389.960907,302.574524 390.604706,303.574097 391.586884,304.372955 
	C393.518524,305.944061 395.481659,307.476349 397.970825,309.486938 
z"/>
<path fill="#000000" opacity="1.000000" stroke="none" 
	d="
M331.850525,277.911499 
	C330.483154,279.049225 329.405579,280.686371 327.840088,279.280670 
	C326.322449,277.917908 325.538452,275.963318 326.041138,273.890930 
	C326.484955,272.061127 327.943787,271.831299 329.584930,272.334595 
	C331.743683,272.996613 332.881897,271.389618 334.282593,270.269592 
	C335.974243,268.916901 337.360199,266.789154 340.920349,267.559418 
	C338.721771,272.025818 334.739563,274.306702 331.850525,277.911499 
z"/>
<path fill="#000000" opacity="1.000000" stroke="none" 
	d="
M310.339966,330.454926 
	C308.454468,333.922577 305.588806,336.231323 302.871613,338.652588 
	C301.805542,339.602539 300.323608,340.833649 298.916473,339.447388 
	C297.003876,337.563171 297.557343,335.122681 298.316498,332.904083 
	C298.881287,331.253326 300.362000,330.314514 301.832245,331.530182 
	C305.317902,334.412384 307.200867,328.700409 310.339966,330.454926 
z"/>
<path fill="#000000" opacity="1.000000" stroke="none" 
	d="
M315.274323,298.477905 
	C314.381073,295.009399 315.201874,292.917389 318.760925,294.057220 
	C321.113037,294.810547 322.063446,293.310120 323.461914,292.321198 
	C325.128418,291.142731 326.190979,288.929810 328.683441,289.168274 
	C329.991699,290.663116 329.033997,291.682159 328.056702,292.579285 
	C325.389313,295.027985 322.661255,297.410492 319.966309,299.829376 
	C317.978302,301.613678 316.464569,301.327545 315.274323,298.477905 
z"/>
<path fill="#000000" opacity="1.000000" stroke="none" 
	d="
M316.146698,309.937195 
	C318.387543,308.753967 319.812622,306.477661 322.527069,307.256134 
	C321.817932,309.728271 314.691528,316.361206 312.682983,316.559082 
	C310.944336,316.730377 310.305206,315.546631 309.987305,314.252808 
	C309.545349,312.454254 310.151031,310.847656 311.992249,310.281342 
	C313.178436,309.916473 314.547150,310.145111 316.146698,309.937195 
z"/>
<path fill="#000000" opacity="1.000000" stroke="none" 
	d="
M192.479889,242.624695 
	C198.358734,236.589645 205.737228,235.964615 212.002899,240.687546 
	C219.439270,246.292938 222.888870,259.252197 219.237808,267.867188 
	C214.935272,278.019379 203.299423,280.300903 195.498596,272.521942 
	C188.153824,265.197723 186.853180,253.360123 192.479889,242.624695 
z"/>
<path fill="#000000" opacity="1.000000" stroke="none" 
	d="
M293.219604,230.339294 
	C293.577087,237.137421 291.982330,242.714691 286.189362,246.187851 
	C280.188385,249.785721 272.423859,247.385712 268.170288,240.647049 
	C264.331329,234.565262 263.709595,227.885925 265.378387,221.012421 
	C266.502075,216.383942 269.041412,212.712738 274.014404,211.703247 
	C279.201141,210.650406 283.522797,212.602249 286.867065,216.547333 
	C290.142975,220.411804 292.218964,224.914246 293.219604,230.339294 
M281.919708,224.360199 
	C282.329254,223.677322 282.999634,223.028793 283.095001,222.304550 
	C283.305206,220.708267 282.648041,219.355972 281.116150,218.649796 
	C280.289337,218.268646 279.460602,218.502243 278.931641,219.276764 
	C277.967194,220.689026 278.081970,222.149887 279.188873,223.373962 
	C279.693420,223.931915 280.579132,224.145172 281.919708,224.360199 
z"/>
<path fill="#000000" opacity="1.000000" stroke="none" 
	d="
M254.653534,273.522125 
	C257.952545,266.923065 257.926270,266.845337 252.046402,263.279480 
	C250.624222,262.416992 248.910706,261.600922 249.034698,259.652191 
	C249.156601,257.736389 250.929611,257.051971 252.418701,256.331085 
	C253.461990,255.826004 254.557770,255.278137 255.681946,255.121658 
	C258.337585,254.751984 261.371521,252.414536 263.593048,255.211258 
	C265.560486,257.688080 263.569519,260.227753 262.244141,262.541870 
	C260.529816,265.535217 262.687469,267.287872 264.581482,268.824432 
	C266.780945,270.608765 269.075500,269.764832 270.854553,267.976318 
	C272.387268,266.435455 273.373932,264.483765 273.639374,262.238403 
	C273.810425,260.791443 273.737518,259.099152 276.338684,259.140381 
	C278.468567,262.902313 276.978638,266.324554 274.931183,269.540894 
	C272.430847,273.468719 268.330688,274.319031 264.346191,273.209991 
	C261.065948,272.296997 259.528015,273.241058 257.828644,275.732849 
	C255.439865,279.235474 251.767685,280.333252 247.727097,279.719940 
	C244.718903,279.263397 242.014236,278.066925 241.118683,273.728851 
	C245.847488,273.960114 250.400391,279.257477 254.653534,273.522125 
z"/>
</svg>